<svg width="193" height="224" viewBox="0 0 193 224" fill="none" xmlns="http://www.w3.org/2000/svg">
<path d="M83.3135 135.251C83.9585 134.265 84.8257 133.408 85.8168 132.76C99.345 123.968 113.635 133.323 113.635 145.974C113.635 151.977 110.397 157.195 105.57 160.128V176.512H87.9277V160.128C80.3656 155.523 76.6745 145.308 83.3135 135.251ZM98.9917 26.984C135.727 26.984 135.602 59.9396 135.602 88.7072L165.935 88.7072C165.935 39.5737 170.235 5.04832 104.04 0.661194C32.2365 0.661194 27.5697 36.3862 27.5697 59.19V88.7072H13.9836C6.71306 88.7072 0.822266 94.5194 0.822266 101.691V204.774H192.673V101.688C192.673 94.5194 186.787 88.7072 179.519 88.7072H165.935L135.602 88.7072L57.9032 88.7072V59.2761C60.8459 33.5647 75.4311 26.984 98.9917 26.984Z" fill="white"/>
<path d="M22.3642 223.308H172.282C182.122 223.308 190.369 216.772 192.684 207.953H1.95508C4.2766 216.772 12.5243 223.308 22.3642 223.308Z" fill="white"/>
</svg>
