<svg width="294" height="293" viewBox="0 0 294 293" fill="none" xmlns="http://www.w3.org/2000/svg">
<path d="M146.517 11.7867C72.2304 11.7867 11.7927 72.2164 11.7927 146.5C11.7927 220.775 72.2304 281.204 146.517 281.204C220.804 281.204 281.241 220.775 281.241 146.5C281.241 72.2164 220.804 11.7867 146.517 11.7867ZM146.517 293C65.727 293 0 227.276 0 146.5C0 65.7156 65.727 0 146.517 0C227.307 0 293.035 65.7156 293.035 146.5C293.035 227.276 227.307 293 146.517 293Z" fill="white"/>
<path d="M251.713 135.665H251.716L253.031 137.388C253.031 137.388 253.031 137.388 253.375 137.388C253.635 137.388 253.636 136.399 253.62 135.919C250.421 87.8018 203.69 49.6127 146.504 49.6127C89.4344 49.6127 42.7788 87.6386 39.4092 135.629C39.4908 137.016 41.3533 135.583 41.3533 135.583C44.3774 131.902 50.2896 129.4 57.0896 129.4C64.0854 129.4 70.1427 132.047 73.0815 135.91C74.0518 137.179 75.8926 137.179 76.8637 135.91C79.8017 132.047 85.8599 129.4 92.8548 129.4C99.8506 129.4 105.909 132.047 108.848 135.91C109.817 137.179 111.659 137.179 112.629 135.91C115.568 132.047 121.625 129.4 128.621 129.4C135.617 129.4 141.674 132.047 144.613 135.91C145.583 137.179 147.425 137.179 148.395 135.91C151.333 132.047 157.391 129.4 164.387 129.4C171.383 129.4 177.44 132.047 180.378 135.91C181.349 137.179 183.19 137.179 184.16 135.91C187.099 132.047 193.156 129.4 200.153 129.4C207.148 129.4 213.206 132.047 216.144 135.91C217.115 137.179 218.956 137.179 219.926 135.91C222.865 132.047 228.923 129.4 235.918 129.4C242.766 129.4 248.708 131.939 251.713 135.665Z" fill="white"/>
<path d="M137.119 252.427L136.971 252.418C129.723 252.345 123.853 246.425 123.853 239.153C123.853 235.898 126.491 233.26 129.748 233.26C133.006 233.26 135.644 235.898 135.644 239.153C135.644 239.951 136.266 240.595 137.045 240.631C137.823 240.595 138.445 239.951 138.445 239.153V46.4671C138.445 43.2121 141.085 40.5737 144.342 40.5737C147.598 40.5737 150.238 43.2121 150.238 46.4671V239.153C150.238 246.425 144.368 252.345 137.119 252.418V252.427Z" fill="white"/>
</svg>
