<svg width="269" height="249" viewBox="0 0 269 249" fill="none" xmlns="http://www.w3.org/2000/svg">
<path d="M94.3689 112.193C94.3689 122.861 84.3058 131.507 71.8895 131.507C59.4733 131.507 49.4102 122.861 49.4102 112.193C49.4102 101.524 59.4733 92.878 71.8895 92.878C84.3058 92.878 94.3689 101.524 94.3689 112.193Z" fill="white"/>
<path d="M94.3689 55.8578H49.4102V112.192H94.3689V55.8578Z" fill="white"/>
<path d="M71.8895 101.322C59.477 101.322 49.4102 106.19 49.4102 112.192C49.4102 118.196 59.477 123.064 71.8895 123.064C84.3058 123.064 94.3689 118.196 94.3689 112.192C94.3689 106.19 84.3058 101.322 71.8895 101.322Z" fill="white"/>
<path d="M71.8882 9.55367C32.5316 9.55367 0.628906 24.9843 0.628906 44.0113C0.628906 63.0448 32.5316 78.4753 71.8882 78.4753C111.245 78.4753 143.148 63.0448 143.148 44.0113C143.148 24.9843 111.245 9.55367 71.8882 9.55367Z" fill="#C7C6C4"/>
<path d="M143.148 35.0164H0.628906V44.011H143.148V35.0164Z" fill="#C7C6C4"/>
<path d="M71.8882 0.556595C32.5316 0.556595 0.628906 15.9871 0.628906 35.0174C0.628906 54.0477 32.5316 69.4783 71.8882 69.4783C111.245 69.4783 143.148 54.0477 143.148 35.0174C143.148 15.9871 111.245 0.556595 71.8882 0.556595Z" fill="white"/>
<path d="M71.889 11.381C42.3019 11.381 18.2307 21.9821 18.2307 35.0139C18.2307 48.049 42.3019 58.6533 71.889 58.6533C101.476 58.6533 125.547 48.049 125.547 35.0139C125.547 21.9821 101.476 11.381 71.889 11.381ZM71.889 61.7356C40.3205 61.7356 14.6396 49.7514 14.6396 35.0139C14.6396 20.2797 40.3205 8.29558 71.889 8.29558C103.458 8.29558 129.138 20.2797 129.138 35.0139C129.138 49.7514 103.458 61.7356 71.889 61.7356Z" fill="#ABAAA9"/>
<path d="M124.539 164.719L79.6727 186.975C73.0297 190.275 67.5947 186.742 67.5947 179.131V127.732C67.5947 120.117 73.0297 111.193 79.6727 107.896L124.539 85.6401C131.185 82.3438 136.62 85.8765 136.62 93.4879V144.887C136.62 152.498 131.185 161.423 124.539 164.719Z" fill="white"/>
<path d="M71.8887 187.553L181.665 241.941L241.973 139.511L131.524 84.7545L71.8887 187.553Z" fill="white"/>
<path d="M188.247 163.626L77.7754 108.992L120.125 87.9554L230.596 142.59L188.247 163.626Z" fill="white"/>
<path d="M190.532 237.869L185.524 235.384L190.532 226.879V237.869Z" fill="#D8D7D5"/>
<path d="M67.5947 127.732V127.029L67.6104 127.035C67.5987 127.269 67.5947 127.499 67.5947 127.732Z" fill="#ABAAA9"/>
<path d="M75.7359 180.919L67.5947 176.882V127.732C67.5947 127.498 67.5985 127.268 67.6096 127.035L98.193 142.207L75.7359 180.919Z" fill="white"/>
<path d="M185.523 235.384L75.7354 180.919L98.1924 142.207L190.53 188.013V226.878L185.523 235.384Z" fill="white"/>
<path d="M116.665 194.752L79.1035 176.121V166.073L116.665 184.704V194.752Z" fill="#1E1C1B"/>
<path d="M235.012 219.482L190.146 241.741C183.503 245.038 178.064 241.508 178.064 233.893V182.494C178.064 174.883 183.503 165.956 190.146 162.662L235.012 140.403C241.659 137.11 247.094 140.639 247.094 148.251V199.65C247.094 207.264 241.659 216.189 235.012 219.482Z" fill="#1E1C1B"/>
<path d="M181.666 241.942L194.536 248.055L254.401 145.379L241.974 139.511L181.666 241.942Z" fill="#1E1C1B"/>
<path d="M257.911 148.113C257.16 148.33 256.405 148.614 255.658 148.985L210.792 171.241C204.149 174.537 199.67 183.149 198.711 191.073L190.532 239.779C190.532 247.391 195.971 250.92 202.614 247.627L247.48 225.368C254.127 222.072 259.561 213.147 259.561 205.536V154.134C259.561 151.639 258.933 149.633 257.911 148.113Z" fill="#373737"/>
<path d="M240.799 164.325C246.011 167.139 249.301 173.281 249.301 181.96C249.301 198.24 237.78 217.152 223.572 224.204C218.357 226.788 213.513 227.405 209.457 226.36C214.022 228.823 220.048 228.734 226.684 225.44C240.895 218.391 252.416 199.479 252.416 183.199C252.416 172.892 247.791 166.13 240.799 164.325Z" fill="#1E1C1B"/>
<path d="M223.572 224.205C237.78 217.152 249.3 198.24 249.3 181.96C249.3 173.281 246.01 167.139 240.799 164.325C236.747 163.284 231.899 163.897 226.683 166.484C212.475 173.534 200.955 192.446 200.955 208.726C200.955 217.404 204.245 223.55 209.457 226.361C213.513 227.405 218.356 226.789 223.572 224.205Z" fill="#302F2F"/>
<path d="M243.512 188.607C243.512 199.256 235.977 211.627 226.684 216.236C217.39 220.845 209.858 215.952 209.858 205.306C209.858 194.657 217.39 182.289 226.684 177.677C235.977 173.068 243.512 177.961 243.512 188.607Z" fill="white"/>
<path d="M231.535 183.168C232.587 184.586 233.227 186.544 233.227 189C233.227 196.011 228.264 204.16 222.145 207.197C220.398 208.063 218.766 208.366 217.294 208.27C219.249 210.902 222.71 211.605 226.684 209.631C232.807 206.597 237.766 198.452 237.766 191.441C237.766 186.429 235.212 183.408 231.535 183.168Z" fill="#1E1C1B"/>
<path d="M222.144 207.197C228.263 204.159 233.226 196.011 233.226 189C233.226 186.544 232.587 184.586 231.535 183.168C230.062 183.069 228.434 183.372 226.683 184.241C220.564 187.278 215.602 195.423 215.602 202.434C215.602 204.891 216.237 206.849 217.293 208.27C218.765 208.366 220.397 208.062 222.144 207.197Z" fill="#302F2F"/>
<path d="M203.029 230.283C203.475 230.817 203.736 231.599 203.736 232.58C203.736 235.202 201.884 238.243 199.594 239.38C199.033 239.654 198.498 239.792 198.011 239.801C198.754 240.696 200.018 240.903 201.446 240.191C203.736 239.057 205.591 236.013 205.591 233.394C205.591 231.417 204.531 230.248 203.029 230.283Z" fill="white"/>
<path d="M203.736 232.58C203.736 231.6 203.476 230.817 203.03 230.284C202.543 230.293 202.007 230.427 201.446 230.705C199.16 231.839 197.309 234.883 197.309 237.502C197.309 238.483 197.565 239.265 198.011 239.802C198.498 239.792 199.033 239.655 199.595 239.38C201.885 238.243 203.736 235.203 203.736 232.58Z" fill="#C7C6C4"/>
<path d="M250.229 153.297C250.675 153.83 250.932 154.613 250.932 155.593C250.932 158.212 249.081 161.256 246.794 162.393C246.229 162.668 245.698 162.805 245.207 162.815C245.954 163.709 247.214 163.917 248.646 163.208C250.932 162.071 252.787 159.027 252.787 156.408C252.787 154.43 251.727 153.261 250.229 153.297Z" fill="white"/>
<path d="M250.932 155.593C250.932 154.613 250.676 153.83 250.23 153.297C249.743 153.303 249.207 153.437 248.646 153.718C246.356 154.852 244.505 157.896 244.505 160.515C244.505 161.496 244.765 162.279 245.207 162.815C245.698 162.806 246.23 162.668 246.795 162.394C249.081 161.256 250.932 158.212 250.932 155.593Z" fill="#C7C6C4"/>
<path d="M250.229 207.264C250.675 207.8 250.932 208.583 250.932 209.563C250.932 212.183 249.081 215.226 246.794 216.36C246.229 216.641 245.698 216.772 245.207 216.785C245.954 217.68 247.214 217.884 248.646 217.175C250.932 216.041 252.787 212.997 252.787 210.378C252.787 208.401 251.727 207.232 250.229 207.264Z" fill="white"/>
<path d="M250.932 209.564C250.932 208.583 250.676 207.8 250.23 207.264C249.743 207.277 249.207 207.408 248.646 207.689C246.356 208.823 244.505 211.867 244.505 214.486C244.505 215.466 244.765 216.249 245.207 216.785C245.698 216.773 246.23 216.642 246.795 216.361C249.081 215.227 250.932 212.183 250.932 209.564Z" fill="#C7C6C4"/>
<path d="M203.735 177.278C204.181 177.814 204.442 178.597 204.442 179.577C204.442 182.196 202.587 185.24 200.3 186.377C199.739 186.652 199.204 186.786 198.717 186.799C199.46 187.693 200.72 187.901 202.152 187.189C204.442 186.055 206.293 183.011 206.293 180.392C206.293 178.415 205.237 177.246 203.735 177.278Z" fill="white"/>
<path d="M204.442 179.578C204.442 178.597 204.182 177.815 203.736 177.278C203.249 177.291 202.713 177.425 202.152 177.703C199.866 178.837 198.011 181.881 198.011 184.5C198.011 185.48 198.271 186.263 198.717 186.8C199.204 186.787 199.739 186.653 200.301 186.378C202.587 185.241 204.442 182.197 204.442 179.578Z" fill="#C7C6C4"/>
<path d="M229.223 192.961C229.223 195.998 227.07 199.534 224.416 200.85C221.758 202.166 219.609 200.77 219.609 197.726C219.609 194.689 221.758 191.156 224.416 189.84C227.07 188.521 229.223 189.92 229.223 192.961Z" fill="white"/>
<path d="M262.825 147.848L262.996 147.839L241.974 139.512V149.02L202.614 168.546C195.971 171.842 190.532 180.766 190.532 188.378V239.78L198.711 191.074C199.67 183.149 204.149 174.538 210.792 171.242L255.658 148.985C256.405 148.615 257.16 148.331 257.911 148.113C258.933 149.634 259.561 151.64 259.561 154.134V205.536L267.74 156.83C269.015 151.553 266.502 148.557 262.825 147.848Z" fill="#1E1C1B"/>
</svg>
